# xmcd CD database file
#
# Track frame offsets:
#	182
#	17710
#	27165
#	43460
#	53472
#	63432
#	79422
#	94422
#	117637
#	135467
#	150122
#	165810
#	177790
#	189635
#	207665
#
# Disc length: 3094 seconds
#
# Revision: 0
# Processed by: cddbd v1.5.2PL0 Copyright (c) Steve Scherf et al.
# Submitted via: CDex 1.51
#
DISCID=c50c140f
DTITLE=The Byrds - Turn, Turn, Turn
DYEAR=1992
DGENRE=Country
TTITLE0=Turn, Turn, Turn (For Everything There Is A Reason)
TTITLE1=All I Really Want To Do
TTITLE2=Eight Miles High
TTITLE3=He Was A Friend Of Mine
TTITLE4=Mr. Spaceman
TTITLE5=Hickory Wind
TTITLE6=Lay Lady Lay
TTITLE7=Chesnut Mare
TTITLE8=Love That Never Dies
TTITLE9=From A Distance
TTITLE10=Goin' Back
TTITLE11=I See You
TTITLE12=Have You Seen Her Face
TTITLE13=Just Like A Woman
TTITLE14=Mr. Tambourine Man
EXTD=YEAR: 1992
EXTT0=
EXTT1=
EXTT2=
EXTT3=
EXTT4=
EXTT5=
EXTT6=
EXTT7=
EXTT8=
EXTT9=
EXTT10=
EXTT11=
EXTT12=
EXTT13=
EXTT14=
PLAYORDER=
